<svg xmlns="http://www.w3.org/2000/svg" version="1.1" xmlns:xlink="http://www.w3.org/1999/xlink" xmlns:svgjs="http://svgjs.com/svgjs" width="1920" height="1080" preserveAspectRatio="none" viewBox="0 0 1920 1080"><g mask="url(&quot;#SvgjsMask1018&quot;)" fill="none"><rect width="1920" height="1080" x="0" y="0" fill="#0e2a47"></rect><path d="M14 1080L1094 0L1251.5 0L171.5 1080z" fill="url(#SvgjsLinearGradient1019)"></path><path d="M745.6 1080L1825.6 0L2490.1 0L1410.1 1080z" fill="url(#SvgjsLinearGradient1019)"></path><path d="M1824 1080L744 0L528 0L1608 1080z" fill="url(#SvgjsLinearGradient1020)"></path><path d="M1160.4 1080L80.40000000000009 0L-716.0999999999999 0L363.9000000000001 1080z" fill="url(#SvgjsLinearGradient1020)"></path><path d="M1034.6435590929154 1080L1920 194.64355909291544L1920 1080z" fill="url(#SvgjsLinearGradient1019)"></path><path d="M0 1080L885.3564409070846 1080L 0 194.64355909291544z" fill="url(#SvgjsLinearGradient1020)"></path></g><defs><mask id="SvgjsMask1018"><rect width="1920" height="1080" fill="#ffffff"></rect></mask><linearGradient x1="0%" y1="100%" x2="100%" y2="0%" id="SvgjsLinearGradient1019"><stop stop-color="rgba(15, 70, 185, 0.2)" offset="0"></stop><stop stop-opacity="0" stop-color="rgba(15, 70, 185, 0.2)" offset="0.66"></stop></linearGradient><linearGradient x1="100%" y1="100%" x2="0%" y2="0%" id="SvgjsLinearGradient1020"><stop stop-color="rgba(15, 70, 185, 0.2)" offset="0"></stop><stop stop-opacity="0" stop-color="rgba(15, 70, 185, 0.2)" offset="0.66"></stop></linearGradient></defs></svg>